<svg width="1791" height="800" viewBox="0 0 1791 800" fill="none" xmlns="http://www.w3.org/2000/svg">
<path d="M762.576 245.857H786.523L817.016 322.09L847.509 245.857H871.456L817.043 368.757L762.576 245.857Z" fill="white"/>
<path d="M880.348 264.84C880.348 258.294 885.803 253.166 892.185 253.166C898.731 253.166 904.022 258.294 904.022 264.84C904.022 271.386 898.731 276.513 892.185 276.513C885.775 276.513 880.348 271.359 880.348 264.84ZM882.202 290.342H902.113V368.757H882.202V290.342Z" fill="white"/>
<path d="M999.838 333.136H938.061C939.616 345.9 948.644 353.974 960.154 353.974C968.391 353.974 976.027 349.937 980.228 342.627L996.402 349.31C990.019 362.211 976.791 370.311 960.317 370.311C935.415 370.311 918.314 352.255 918.314 329.563C918.314 306.843 935.743 288.814 959.69 288.814C982.246 288.814 999.675 304.852 999.975 328.799L999.838 333.136ZM940.079 317.726H978.509C975.236 309.789 969.018 304.825 959.826 304.825C950.362 304.825 943.516 309.789 940.079 317.726Z" fill="white"/>
<path d="M1024.09 306.679H1008.68V290.342H1024.09V262.194H1044.3V290.342H1059.54V306.679H1044.3V368.757H1024.09V306.679Z" fill="white"/>
<path d="M1073.23 290.342H1093.31V297.488C1098.9 291.896 1106.37 288.787 1114.31 288.787C1130.02 288.787 1142.46 301.688 1142.46 318.026V368.757H1122.22V320.535C1122.22 312.298 1116 306.543 1108.06 306.543C1099.66 306.543 1093.44 312.598 1093.28 320.535V368.757H1073.21V290.342H1073.23Z" fill="white"/>
<path d="M1156.31 329.399C1156.31 306.679 1173.91 288.487 1195.04 288.487C1206.25 288.487 1214.79 292.524 1220.54 299.233V290.369H1240.78V368.757H1221.96L1221.5 358.638C1215.58 365.947 1206.72 370.311 1195.04 370.311C1173.88 370.311 1156.31 352.255 1156.31 329.399ZM1221.17 329.399C1221.17 316.962 1211.38 307.007 1198.92 307.007C1186.32 307.007 1176.52 316.962 1176.52 329.399C1176.52 341.836 1186.32 351.955 1198.92 351.955C1211.38 351.955 1221.17 341.836 1221.17 329.399Z" fill="white"/>
<path d="M1261.95 290.342H1282.19V298.115C1286.85 292.36 1293.53 288.787 1301.17 288.787C1310.03 288.787 1318.13 293.451 1323.56 301.088C1328.69 293.451 1336.79 288.787 1346.91 288.787C1363.55 288.787 1375.85 302.015 1375.85 319.117V368.757H1355.61V320.699C1355.61 312.925 1350.15 306.843 1342.54 306.843C1334.31 306.843 1329.02 313.525 1329.02 321.626V368.757H1308.78V320.699C1308.78 312.925 1303.32 306.843 1295.39 306.843C1287.29 306.843 1282.16 313.525 1282.16 321.626V368.757H1261.92V290.342H1261.95Z" fill="white"/>
<path d="M793.396 417.987H762.603V397.777H844.291V417.987H813.606V517.567H793.396V417.987Z" fill="white"/>
<path d="M915.669 481.156H853.891C855.446 493.921 864.474 501.994 875.984 501.994C884.221 501.994 891.858 497.957 896.058 490.648L912.232 497.33C905.85 510.231 892.621 518.331 876.147 518.331C851.246 518.331 834.144 500.276 834.144 477.583C834.144 454.863 851.573 436.835 875.52 436.835C898.076 436.835 915.505 452.872 915.805 476.819L915.669 481.156ZM855.91 465.773H894.34C891.067 457.836 884.848 452.872 875.657 452.872C866.192 452.845 859.346 457.836 855.91 465.773Z" fill="white"/>
<path d="M1012.68 397.777H1032.76V446.326C1038.05 441.035 1045.06 437.625 1053.3 437.625C1069.63 437.625 1081.93 450.526 1081.93 466.864V517.595H1061.7V469.046C1061.7 461.436 1055.64 455.654 1047.84 455.654C1039.28 455.654 1032.9 461.572 1032.76 469.182V517.567H1012.68V397.777Z" fill="white"/>
<path d="M1094.18 490.811L1112.54 482.574C1115.18 492.366 1122.96 498.284 1132.45 498.284C1143.03 498.284 1150.04 490.975 1150.04 481.32C1150.04 457.372 1100.56 463.591 1100.56 427.179C1100.56 407.432 1115.18 395.432 1133.24 395.432C1148.79 395.432 1161.25 404.46 1165.75 417.824L1147.56 426.225C1145.84 418.751 1140.88 414.387 1133.7 414.387C1125.93 414.387 1120.64 419.515 1120.64 426.525C1120.64 447.854 1170.28 442.699 1170.28 481.592C1170.28 503.685 1154.1 518.304 1133.1 518.304C1114.42 518.359 1099.01 506.821 1094.18 490.811Z" fill="white"/>
<path d="M1180.67 477.583C1180.67 454.863 1198.56 436.835 1222.21 436.835C1245.56 436.835 1263.58 454.89 1263.58 477.583C1263.58 500.303 1245.53 518.331 1222.21 518.331C1198.56 518.359 1180.67 500.303 1180.67 477.583ZM1244 477.583C1244 465.282 1234.21 455.654 1222.21 455.654C1209.77 455.654 1199.95 465.309 1199.95 477.583C1199.95 489.884 1209.74 499.676 1222.21 499.676C1234.21 499.676 1244 489.884 1244 477.583Z" fill="white"/>
<path d="M1315.24 499.757C1302.81 499.757 1293.01 489.966 1293.01 477.665C1293.01 465.364 1302.81 455.709 1315.24 455.709C1321.27 455.709 1326.75 458.163 1330.68 462.145L1344.37 448.454C1336.95 441.28 1326.78 436.889 1315.24 436.889C1291.6 436.889 1273.7 454.945 1273.7 477.665C1273.7 500.357 1291.6 518.413 1315.24 518.413C1326.75 518.413 1336.95 514.049 1344.37 506.876L1330.73 493.239C1326.78 497.275 1321.3 499.757 1315.24 499.757Z" fill="white"/>
<path d="M967.463 499.675C955.026 499.675 945.234 489.884 945.234 477.583C945.234 465.282 955.026 455.627 967.463 455.627C973.491 455.627 978.973 458.081 982.901 462.063L996.593 448.371C989.174 441.198 979 436.807 967.463 436.807C943.816 436.807 925.924 454.863 925.924 477.583C925.924 500.275 943.816 518.331 967.463 518.331C978.973 518.331 989.174 513.967 996.593 506.794L982.955 493.157C978.973 497.193 973.491 499.675 967.463 499.675Z" fill="white"/>
<path d="M1360.46 413.651C1360.46 407.105 1365.92 401.977 1372.3 401.977C1378.85 401.977 1384.14 407.105 1384.14 413.651C1384.14 420.197 1378.85 425.324 1372.3 425.324C1365.92 425.297 1360.46 420.17 1360.46 413.651ZM1362.32 439.153H1382.23V517.568H1362.32V439.153Z" fill="white"/>
<path d="M1479.95 481.947H1418.18C1419.73 494.711 1428.76 502.785 1440.27 502.785C1448.51 502.785 1456.14 498.748 1460.34 491.438L1476.52 498.121C1470.14 511.022 1456.91 519.122 1440.43 519.122C1415.53 519.122 1398.43 501.066 1398.43 478.374C1398.43 455.654 1415.86 437.625 1439.81 437.625C1462.36 437.625 1479.79 453.663 1480.09 477.61L1479.95 481.947ZM1420.2 466.537H1458.63C1455.35 458.6 1449.13 453.636 1439.94 453.636C1430.48 453.636 1423.63 458.6 1420.2 466.537Z" fill="white"/>
<path d="M1504.2 455.49H1488.79V439.153H1504.2V411.005H1524.44V439.153H1539.69V455.49H1524.44V517.568H1504.2V455.49Z" fill="white"/>
<path d="M1630.02 439.152L1584.28 553.351H1563.44L1577.9 516.64L1546.15 439.152H1568.24L1588.48 492.992L1608.56 439.152H1630.02Z" fill="white"/>
<path d="M286.659 214.599H307.333L333.626 280.358L359.919 214.599H380.593L333.626 320.616L286.659 214.599Z" fill="white"/>
<path d="M522.94 233.392H496.375V215.936H566.825V233.392H540.396V319.28H522.94V233.392Z" fill="white"/>
<path d="M498.802 494.847L514.648 487.729C516.939 496.184 523.649 501.284 531.831 501.284C540.968 501.284 546.996 494.984 546.996 486.665C546.996 465.991 504.339 471.364 504.339 439.971C504.339 422.924 516.939 412.587 532.513 412.587C545.932 412.587 556.679 420.36 560.552 431.925L544.841 439.18C543.369 432.743 539.059 428.979 532.895 428.979C526.186 428.979 521.631 433.397 521.631 439.452C521.631 457.836 564.425 453.417 564.425 486.965C564.425 506.03 550.46 518.631 532.35 518.631C516.23 518.604 502.948 508.676 498.802 494.847Z" fill="white"/>
<path d="M231.21 160.377L160.377 231.21V440.843H358.364V638.83H568.025L638.83 567.998V160.377H231.21ZM424.342 176.879L424.369 358.364H242.883V176.879H424.342ZM176.879 238.028L226.382 188.552L226.409 363.165L176.879 412.696V238.028ZM188.552 424.342L238.056 374.838H412.696L363.192 424.342H188.552ZM374.866 436.016L424.369 386.512V561.152L374.866 610.683V436.016ZM561.179 622.329H386.512L436.015 572.825H610.655L561.179 622.329ZM622.329 556.352H440.87V374.866H622.329V556.352ZM622.329 358.364H440.87L440.843 176.879H622.329V358.364Z" fill="white"/>
</svg>
