<svg width="800" height="800" viewBox="0 0 800 800" fill="none" xmlns="http://www.w3.org/2000/svg">
<path d="M287.282 215.222H307.956L334.249 280.981L360.542 215.222H381.216L334.249 321.239L287.282 215.222Z" fill="#010042"/>
<path d="M523.563 234.015H496.997V216.559H567.448V234.015H541.018V319.903H523.563V234.015Z" fill="#010042"/>
<path d="M499.424 495.47L515.271 488.351C517.562 496.806 524.272 501.907 532.454 501.907C541.591 501.907 547.619 495.606 547.619 487.287C547.619 466.613 504.961 471.986 504.961 440.593C504.961 423.546 517.562 413.209 533.136 413.209C546.555 413.209 557.301 420.983 561.174 432.547L545.464 439.802C543.991 433.365 539.682 429.601 533.518 429.601C526.808 429.601 522.253 434.02 522.253 440.075C522.253 458.458 565.047 454.04 565.047 487.587C565.047 506.652 551.083 519.253 532.972 519.253C516.853 519.226 503.57 509.298 499.424 495.47Z" fill="#010042"/>
<path d="M231.832 161L161 231.832V441.466H358.987V639.453H568.648L639.453 568.62V161H231.832ZM424.965 177.501L424.992 358.987H243.506V177.501H424.965ZM177.501 238.651L227.005 189.175L227.032 363.787L177.501 413.318V238.651ZM189.175 424.965L238.678 375.461H413.318L363.815 424.965H189.175ZM375.488 436.638L424.992 387.135V561.775L375.488 611.305V436.638ZM561.802 622.952H387.135L436.638 573.448H611.278L561.802 622.952ZM622.952 556.974H441.493V375.488H622.952V556.974ZM622.952 358.987H441.493L441.466 177.501H622.952V358.987Z" fill="#010042"/>
</svg>
