<svg width="1791" height="800" viewBox="0 0 1791 800" fill="none" xmlns="http://www.w3.org/2000/svg">
<path d="M762.198 246.479H786.145L816.639 322.712L847.132 246.479H871.079L816.666 369.379L762.198 246.479Z" fill="#010042"/>
<path d="M879.97 265.463C879.97 258.917 885.425 253.789 891.808 253.789C898.354 253.789 903.645 258.917 903.645 265.463C903.645 272.008 898.354 277.136 891.808 277.136C885.398 277.136 879.97 271.981 879.97 265.463ZM881.825 290.964H901.736V369.379H881.825V290.964Z" fill="#010042"/>
<path d="M999.461 333.758H937.684C939.238 346.523 948.266 354.596 959.776 354.596C968.013 354.596 975.65 350.56 979.85 343.25L996.024 349.932C989.642 362.833 976.414 370.934 959.94 370.934C935.038 370.934 917.937 352.878 917.937 330.185C917.937 307.466 935.365 289.437 959.313 289.437C981.869 289.437 999.297 305.475 999.597 329.422L999.461 333.758ZM939.702 318.348H978.132C974.859 310.411 968.64 305.447 959.449 305.447C949.985 305.447 943.139 310.411 939.702 318.348Z" fill="#010042"/>
<path d="M1023.71 307.302H1008.3V290.964H1023.71V262.817H1043.92V290.964H1059.17V307.302H1043.92V369.379H1023.71V307.302Z" fill="#010042"/>
<path d="M1072.86 290.964H1092.93V298.11C1098.52 292.519 1106 289.41 1113.93 289.41C1129.64 289.41 1142.08 302.311 1142.08 318.648V369.379H1121.84V321.158C1121.84 312.921 1115.62 307.166 1107.69 307.166C1099.29 307.166 1093.07 313.221 1092.9 321.158V369.379H1072.83V290.964H1072.86Z" fill="#010042"/>
<path d="M1155.94 330.022C1155.94 307.302 1173.53 289.11 1194.67 289.11C1205.88 289.11 1214.41 293.146 1220.17 299.856V290.992H1240.41V369.379H1221.59L1221.12 359.26C1215.2 366.57 1206.34 370.934 1194.67 370.934C1173.5 370.934 1155.94 352.878 1155.94 330.022ZM1220.79 330.022C1220.79 317.584 1211 307.629 1198.54 307.629C1185.94 307.629 1176.15 317.584 1176.15 330.022C1176.15 342.459 1185.94 352.578 1198.54 352.578C1211 352.578 1220.79 342.459 1220.79 330.022Z" fill="#010042"/>
<path d="M1261.57 290.964H1281.81V298.738C1286.47 292.983 1293.16 289.41 1300.79 289.41C1309.66 289.41 1317.76 294.074 1323.18 301.711C1328.31 294.074 1336.41 289.41 1346.53 289.41C1363.17 289.41 1375.47 302.638 1375.47 319.739V369.379H1355.23V321.321C1355.23 313.548 1349.78 307.466 1342.17 307.466C1333.93 307.466 1328.64 314.148 1328.64 322.248V369.379H1308.4V321.321C1308.4 313.548 1302.95 307.466 1295.01 307.466C1286.91 307.466 1281.78 314.148 1281.78 322.248V369.379H1261.54V290.964H1261.57Z" fill="#010042"/>
<path d="M793.019 418.61H762.225V398.399H843.913V418.61H813.229V518.19H793.019V418.61Z" fill="#010042"/>
<path d="M915.291 481.779H853.514C855.069 494.543 864.097 502.616 875.606 502.616C883.843 502.616 891.48 498.58 895.681 491.27L911.855 497.952C905.472 510.853 892.244 518.954 875.77 518.954C850.868 518.954 833.767 500.898 833.767 478.206C833.767 455.486 851.196 437.457 875.143 437.457C897.699 437.457 915.128 453.495 915.428 477.442L915.291 481.779ZM855.532 466.396H893.962C890.689 458.459 884.471 453.495 875.279 453.495C865.815 453.467 858.969 458.459 855.532 466.396Z" fill="#010042"/>
<path d="M1012.31 398.399H1032.38V446.948C1037.67 441.657 1044.68 438.248 1052.92 438.248C1069.26 438.248 1081.56 451.149 1081.56 467.486V518.217H1061.32V469.668C1061.32 462.059 1055.26 456.276 1047.46 456.276C1038.9 456.276 1032.52 462.195 1032.38 469.805V518.19H1012.31V398.399Z" fill="#010042"/>
<path d="M1093.8 491.434L1112.16 483.197C1114.81 492.988 1122.58 498.907 1132.07 498.907C1142.65 498.907 1149.66 491.597 1149.66 481.942C1149.66 457.995 1100.19 464.214 1100.19 427.802C1100.19 408.055 1114.81 396.054 1132.86 396.054C1148.41 396.054 1160.87 405.082 1165.37 418.447L1147.18 426.847C1145.46 419.374 1140.5 415.01 1133.32 415.01C1125.55 415.01 1120.26 420.138 1120.26 427.147C1120.26 448.476 1169.9 443.321 1169.9 482.215C1169.9 504.308 1153.73 518.927 1132.73 518.927C1114.04 518.981 1098.63 507.444 1093.8 491.434Z" fill="#010042"/>
<path d="M1180.29 478.206C1180.29 455.486 1198.18 437.457 1221.83 437.457C1245.18 437.457 1263.21 455.513 1263.21 478.206C1263.21 500.925 1245.15 518.954 1221.83 518.954C1198.18 518.981 1180.29 500.925 1180.29 478.206ZM1243.62 478.206C1243.62 465.905 1233.83 456.277 1221.83 456.277C1209.39 456.277 1199.58 465.932 1199.58 478.206C1199.58 490.506 1209.37 500.298 1221.83 500.298C1233.83 500.298 1243.62 490.506 1243.62 478.206Z" fill="#010042"/>
<path d="M1314.87 500.38C1302.43 500.38 1292.64 490.588 1292.64 478.287C1292.64 465.986 1302.43 456.331 1314.87 456.331C1320.89 456.331 1326.38 458.786 1330.3 462.768L1343.99 449.076C1336.58 441.903 1326.4 437.512 1314.87 437.512C1291.22 437.512 1273.33 455.568 1273.33 478.287C1273.33 500.98 1291.22 519.036 1314.87 519.036C1326.38 519.036 1336.58 514.672 1343.99 507.499L1330.36 493.861C1326.4 497.898 1320.92 500.38 1314.87 500.38Z" fill="#010042"/>
<path d="M967.086 500.298C954.649 500.298 944.857 490.506 944.857 478.205C944.857 465.904 954.649 456.249 967.086 456.249C973.114 456.249 978.596 458.704 982.523 462.686L996.215 448.994C988.797 441.821 978.623 437.43 967.086 437.43C943.439 437.43 925.547 455.485 925.547 478.205C925.547 500.898 943.439 518.954 967.086 518.954C978.596 518.954 988.797 514.59 996.215 507.417L982.578 493.779C978.596 497.816 973.114 500.298 967.086 500.298Z" fill="#010042"/>
<path d="M1360.09 414.274C1360.09 407.728 1365.54 402.6 1371.92 402.6C1378.47 402.6 1383.76 407.728 1383.76 414.274C1383.76 420.819 1378.47 425.947 1371.92 425.947C1365.54 425.92 1360.09 420.792 1360.09 414.274ZM1361.94 439.775H1381.85V518.19H1361.94V439.775Z" fill="#010042"/>
<path d="M1479.58 482.569H1417.8C1419.36 495.334 1428.38 503.407 1439.89 503.407C1448.13 503.407 1455.77 499.371 1459.97 492.061L1476.14 498.743C1469.76 511.644 1456.53 519.745 1440.06 519.745C1415.15 519.745 1398.05 501.689 1398.05 478.996C1398.05 456.277 1415.48 438.248 1439.43 438.248C1461.99 438.248 1479.41 454.286 1479.71 478.233L1479.58 482.569ZM1419.82 467.159H1458.25C1454.98 459.222 1448.76 454.258 1439.57 454.258C1430.1 454.258 1423.26 459.222 1419.82 467.159Z" fill="#010042"/>
<path d="M1503.82 456.113H1488.41V439.775H1503.82V411.628H1524.06V439.775H1539.31V456.113H1524.06V518.19H1503.82V456.113Z" fill="#010042"/>
<path d="M1629.64 439.775L1583.9 553.974H1563.07L1577.52 517.262L1545.77 439.775H1567.87L1588.1 493.615L1608.18 439.775H1629.64Z" fill="#010042"/>
<path d="M286.282 215.222H306.956L333.249 280.981L359.542 215.222H380.216L333.249 321.239L286.282 215.222Z" fill="#010042"/>
<path d="M522.563 234.015H495.997V216.559H566.448V234.015H540.019V319.903H522.563V234.015Z" fill="#010042"/>
<path d="M498.425 495.47L514.271 488.351C516.562 496.806 523.272 501.907 531.454 501.907C540.591 501.907 546.619 495.606 546.619 487.288C546.619 466.613 503.961 471.986 503.961 440.593C503.961 423.547 516.562 413.209 532.136 413.209C545.555 413.209 556.301 420.983 560.174 432.547L544.464 439.802C542.991 433.365 538.682 429.602 532.518 429.602C525.808 429.602 521.253 434.02 521.253 440.075C521.253 458.458 564.047 454.04 564.047 487.588C564.047 506.653 550.083 519.253 531.972 519.253C515.853 519.226 502.57 509.298 498.425 495.47Z" fill="#010042"/>
<path d="M230.832 161L160 231.832V441.466H357.987V639.453H567.648L638.453 568.62V161H230.832ZM423.965 177.501L423.992 358.987H242.506V177.501H423.965ZM176.501 238.651L226.005 189.175L226.032 363.787L176.501 413.318V238.651ZM188.175 424.965L237.678 375.461H412.318L362.815 424.965H188.175ZM374.488 436.638L423.992 387.135V561.775L374.488 611.305V436.638ZM560.802 622.952H386.135L435.638 573.448H610.278L560.802 622.952ZM621.952 556.974H440.493V375.488H621.952V556.974ZM621.952 358.987H440.493L440.466 177.501H621.952V358.987Z" fill="#010042"/>
</svg>
