<svg width="32" height="32" viewBox="0 0 32 32" fill="none" xmlns="http://www.w3.org/2000/svg">
<path d="M23.8572 8.85721H25.2857M7.42858 1.71436H24.5714C27.7274 1.71436 30.2857 4.27273 30.2857 7.42864V24.5715C30.2857 27.7274 27.7274 30.2858 24.5714 30.2858H7.42858C4.27267 30.2858 1.71429 27.7274 1.71429 24.5715V7.42864C1.71429 4.27273 4.27267 1.71436 7.42858 1.71436ZM16 21.7144C12.8441 21.7144 10.2857 19.156 10.2857 16.0001C10.2857 12.8442 12.8441 10.2858 16 10.2858C19.1559 10.2858 21.7143 12.8442 21.7143 16.0001C21.7143 19.156 19.1559 21.7144 16 21.7144Z" stroke="#010042" stroke-width="2"/>
</svg>
